# Blender 5.1.0
# www.blender.org

o evobase.2000.004
v -0.490477 1.472197 0.325241
v -0.208033 1.399026 0.356036
v -0.450095 1.452092 0.091928
v -0.680394 1.672755 0.108606
v -0.334804 1.746187 0.069240
v -0.044100 1.780147 0.762011
v -0.078323 1.716794 0.328034
v -0.133986 1.814045 0.703213
v -0.118347 1.869072 0.643403
v -0.059322 1.901671 0.659156
v -0.411848 1.815715 0.251261
v -0.487915 1.605999 0.266661
v -0.728412 1.738879 0.170186
v -0.739014 1.755853 0.118464
v -0.697883 1.778285 0.143045
v -0.253351 1.498018 0.116113
v -0.258582 -0.214256 -0.011239
v -0.151766 -0.305803 0.187343
v 0.032746 -0.151098 0.267359
v -0.048180 -0.155426 0.060684
v -0.484203 -0.190126 0.186513
v -0.112625 -0.178930 0.455179
v -0.405745 0.433810 0.272581
v -0.229333 0.473467 0.442077
v -0.268733 0.446797 0.099641
v -0.018012 0.501090 0.337742
v -0.094481 0.477002 0.171657
v -0.213817 0.560542 0.265995
v -0.237683 0.699397 0.477417
v -0.465874 0.666332 0.259577
v -0.006447 0.746899 0.354434
v -0.025334 0.740063 0.102183
v -0.309944 0.688948 0.064557
v -0.277035 0.851932 0.253654
v -0.272639 0.677594 0.061943
v -0.164067 0.570019 0.247430
v 0.010311 0.747369 0.302112
v -0.060279 0.760185 0.119213
v -0.463380 0.673582 0.245501
v -0.146274 0.710791 0.482557
v -0.496577 1.150221 0.266080
v -0.307034 1.180978 0.424651
v -0.347805 1.167853 0.100851
v -0.078317 1.209108 0.323651
v -0.159931 1.192003 0.167287
v -0.293944 1.299318 0.253910
v -0.327117 1.464422 0.450321
v -0.586637 1.422307 0.233208
v -0.047683 1.508833 0.350457
v -0.159428 1.485413 0.136365
v -0.416662 1.452349 0.045403
v -0.377040 1.672353 0.230530
vn -0.7043 -0.4570 0.5432
vn -0.2482 -0.6496 -0.7187
vn 0.4185 -0.8754 0.2418
vn -0.6575 -0.3786 -0.6514
vn 0.2733 0.4422 -0.8543
vn 0.9076 0.1697 -0.3841
vn 0.4324 -0.0924 0.8969
vn -0.6682 0.1561 0.7274
vn -0.6164 0.7397 0.2700
vn 0.5605 0.7966 0.2265
vn -0.3265 0.9104 0.2542
vn -0.5601 0.2460 0.7910
vn -0.8122 -0.0394 0.5820
vn -0.2823 0.9150 -0.2884
vn -0.7612 0.2466 -0.5997
vn 0.5543 -0.3826 -0.7391
vn 0.1948 -0.5748 0.7948
vn -0.6248 -0.7627 -0.1671
vn 0.8671 -0.4773 0.1422
vn 0.6560 -0.3727 -0.6563
vn -0.2091 -0.5266 -0.8240
vn -0.9849 -0.1018 0.1399
vn -0.1667 -0.0956 0.9814
vn -0.8838 -0.4622 0.0720
vn -0.2778 -0.0437 -0.9596
vn 0.9212 -0.0458 0.3865
vn 0.7080 -0.0960 -0.6996
vn -0.1110 0.9927 -0.0474
vn 0.3874 0.9217 -0.0203
vn -0.0859 0.8283 -0.5537
vn -0.5964 0.7705 -0.2250
vn -0.5022 0.8081 0.3078
vn 0.0636 0.8550 0.5147
vn -0.0646 -0.1451 0.9873
vn -0.9690 -0.2457 0.0246
vn -0.3271 -0.1898 -0.9257
vn 0.8910 -0.0724 0.4482
vn 0.7379 -0.2281 -0.6352
vn -0.1655 0.9662 -0.1977
vn -0.0082 0.7693 0.6388
vn 0.1705 0.9823 -0.0769
vn -0.1853 0.9708 0.1522
vn -0.3584 0.9169 0.1754
vn -0.3494 0.9324 -0.0924
vn 0.2156 -0.5174 0.8281
vn -0.6313 -0.7639 -0.1342
vn 0.8951 -0.4015 0.1939
vn 0.6742 -0.3024 -0.6739
vn -0.1881 -0.5490 -0.8144
vn -0.9724 -0.1928 0.1312
vn -0.1890 -0.0408 0.9811
vn -0.8091 -0.5741 0.1258
vn -0.2371 -0.0964 -0.9667
vn 0.9384 0.0832 0.3353
vn 0.6437 0.0749 -0.7616
vn -0.1408 0.9894 -0.0341
vn 0.3879 0.9217 -0.0079
vn -0.0221 0.7634 -0.6455
vn -0.5921 0.7833 -0.1895
vn -0.5463 0.6925 0.4711
vn 0.0476 0.8184 0.5726
vn -0.1082 -0.1146 0.9875
vn -0.9504 -0.3109 -0.0089
vn -0.2205 -0.2377 -0.9460
vn 0.9309 -0.1258 0.3430
vn 0.6650 -0.0794 -0.7426
vn -0.1674 0.9856 -0.0240
vn 0.0417 0.7771 0.6280
vn 0.0975 0.9928 -0.0692
vn -0.2543 0.9667 0.0273
vn -0.0499 0.9947 -0.0901
vn -0.3252 0.9430 -0.0703
vt 0.740590 0.474430
vt 0.704830 0.500083
vt 0.850190 0.500083
vt 0.631070 0.438290
vt 0.734200 0.436340
vt 0.894090 0.455180
vt 0.982360 0.496330
vt 0.961900 0.459080
vt 0.927690 0.303610
vt 0.944190 0.325850
vt 0.735550 0.383210
vt 0.727880 0.441440
vt 0.632190 0.308550
vt 0.662130 0.308160
vt 0.598600 0.308800
vt 0.772850 0.500083
vt 0.421970 0.359520
vt 0.477530 0.377970
vt 0.493640 0.388520
vt 0.475730 0.377970
vt 0.430970 0.261120
vt 0.431720 0.259830
vt 0.422680 0.359520
vt 0.464130 0.243750
vt 0.465550 0.242150
vt 0.477170 0.237430
vt 0.452660 0.152310
vt 0.421280 0.140810
vt 0.422300 0.139040
vt 0.468620 0.114840
vt 0.484520 0.108370
vt 0.466680 0.117030
vt 0.248348 0.359520
vt 0.303908 0.377970
vt 0.320018 0.388520
vt 0.302108 0.377970
vt 0.257348 0.261120
vt 0.258098 0.259830
vt 0.249058 0.359520
vt 0.290508 0.243750
vt 0.291928 0.242150
vt 0.303548 0.237430
vt 0.279038 0.152310
vt 0.247658 0.140810
vt 0.248678 0.139040
vt 0.294998 0.114840
vt 0.310898 0.108370
vt 0.293058 0.117030
s 1

f 1/1/1 3/2/2 2/3/3
f 4/4/4 3/2/2 1/1/1
f 5/5/5 3/2/2 4/4/4
f 2/3/3 7/6/6 6/7/7
f 6/7/7 8/8/8 2/3/3
f 2/3/3 8/8/8 1/1/1
f 8/8/8 9/9/9 1/1/1
f 10/10/10 5/5/5 9/9/9
f 6/7/7 7/6/6 10/10/10
f 10/10/10 7/6/6 5/5/5
f 9/9/9 8/8/8 10/10/10
f 10/10/10 8/8/8 6/7/7
f 5/5/5 11/11/11 9/9/9
f 9/9/9 11/11/11 1/1/1
f 11/11/11 12/12/12 1/1/1
f 1/1/1 12/12/12 4/4/4
f 13/13/13 15/14/14 14/15/15
f 11/11/11 5/5/5 15/14/14
f 14/15/15 15/14/14 4/4/4
f 4/4/4 15/14/14 5/5/5
f 15/14/14 13/13/13 11/11/11
f 11/11/11 13/13/13 12/12/12
f 14/15/15 4/4/4 13/13/13
f 13/13/13 4/4/4 12/12/12
f 7/6/6 16/16/16 5/5/5
f 5/5/5 16/16/16 3/2/2
f 3/2/2 16/16/16 2/3/3
f 2/3/3 16/16/16 7/6/6
f 22/17/17 18/17/18 19/18/19
f 19/18/19 18/18/18 20/19/20
f 20/19/20 18/19/18 17/20/21
f 23/21/22 22/17/17 24/22/23
f 23/21/22 21/23/24 22/17/17
f 17/20/21 23/21/22 25/24/25
f 17/20/21 21/23/24 23/21/22
f 22/17/17 26/25/26 24/22/23
f 22/17/17 19/18/19 26/25/26
f 26/25/26 20/19/20 27/26/27
f 26/25/26 19/18/19 20/19/20
f 20/19/20 25/24/25 27/26/27
f 20/19/20 17/20/21 25/24/25
f 28/27/28 30/28/29 29/29/30
f 28/27/28 29/29/30 31/30/31
f 28/27/28 31/30/31 32/31/32
f 28/27/28 32/31/32 33/32/33
f 28/27/28 33/32/33 30/28/29
f 23/21/22 29/29/34 30/28/35
f 23/21/22 24/22/23 29/29/34
f 25/24/25 30/28/35 33/32/36
f 25/24/25 23/21/22 30/28/35
f 29/29/34 26/25/26 31/30/37
f 29/29/34 24/22/23 26/25/26
f 26/25/26 32/31/38 31/30/37
f 26/25/26 27/26/27 32/31/38
f 32/31/38 25/24/25 33/32/36
f 32/31/38 27/26/27 25/24/25
f 29/29/39 34/29/40 30/28/41
f 30/28/41 34/28/40 33/32/42
f 33/32/42 34/32/40 32/31/43
f 32/31/43 34/31/40 31/30/44
f 31/30/44 34/30/40 29/29/39
f 17/20/21 18/20/18 21/23/24
f 21/23/24 18/23/18 22/17/17
f 40/33/45 36/33/46 37/34/47
f 37/34/47 36/34/46 38/35/48
f 38/35/48 36/35/46 35/36/49
f 41/37/50 40/33/45 42/38/51
f 41/37/50 39/39/52 40/33/45
f 35/36/49 41/37/50 43/40/53
f 35/36/49 39/39/52 41/37/50
f 40/33/45 44/41/54 42/38/51
f 40/33/45 37/34/47 44/41/54
f 44/41/54 38/35/48 45/42/55
f 44/41/54 37/34/47 38/35/48
f 38/35/48 43/40/53 45/42/55
f 38/35/48 35/36/49 43/40/53
f 46/43/56 48/44/57 47/45/58
f 46/43/56 47/45/58 49/46/59
f 46/43/56 49/46/59 50/47/60
f 46/43/56 50/47/60 51/48/61
f 46/43/56 51/48/61 48/44/57
f 41/37/50 47/45/62 48/44/63
f 41/37/50 42/38/51 47/45/62
f 43/40/53 48/44/63 51/48/64
f 43/40/53 41/37/50 48/44/63
f 47/45/62 44/41/54 49/46/65
f 47/45/62 42/38/51 44/41/54
f 44/41/54 50/47/66 49/46/65
f 44/41/54 45/42/55 50/47/66
f 50/47/66 43/40/53 51/48/64
f 50/47/66 45/42/55 43/40/53
f 47/45/67 52/45/68 48/44/69
f 48/44/69 52/44/68 51/48/70
f 51/48/70 52/48/68 50/47/71
f 50/47/71 52/47/68 49/46/72
f 49/46/72 52/46/68 47/45/67
f 35/36/49 36/36/46 39/39/52
f 39/39/52 36/39/46 40/33/45
o Blob2
v -0.527347 2.292327 0.167199
v -0.229530 2.294768 0.359353
v -0.787223 2.039407 0.260695
v -0.649398 2.234673 0.387653
v -0.060324 2.072183 0.456386
v -0.386931 2.097717 0.611178
v -0.658254 2.027610 0.540701
v -0.545526 1.787787 0.515476
v -0.193257 1.834985 0.529195
v -0.691260 1.760299 0.260881
v -0.100005 1.805858 0.263639
v -0.351434 1.744945 0.125506
v -0.211283 1.875546 0.056121
v -0.578647 1.925953 0.014746
v -0.276601 2.172348 0.033136
v -0.051743 2.052216 0.150936
v -0.371805 1.895735 0.312233
v -0.446641 1.444581 0.553774
v -0.498180 1.408167 0.438892
v -0.440470 1.383170 0.323892
v -0.317450 1.382350 0.272085
v -0.197185 1.408956 0.323534
v -0.145664 1.445531 0.438373
v -0.203356 1.470367 0.553416
v -0.326392 1.471335 0.605184
vn 0.3909 0.9000 0.1928
vn -0.5720 0.7560 0.3183
vn 0.0343 0.3195 0.9470
vn -0.9817 0.1221 -0.1463
vn -0.6490 0.0593 0.7584
vn 0.8504 0.2250 0.4756
vn 0.4410 -0.5885 0.6777
vn -0.2785 -0.7151 0.6412
vn -0.6644 -0.7420 -0.0898
vn 0.0847 -0.8965 -0.4349
vn 0.7196 -0.6914 -0.0639
vn 0.8837 0.1838 -0.4305
vn 0.4194 -0.3869 -0.8212
vn -0.4189 -0.1742 -0.8911
vn 0.2639 0.5077 -0.8201
vn -0.3157 0.8428 -0.4358
vn 0.0277 -0.2482 0.9683
vn -0.1022 0.9604 -0.2593
vn -0.5816 -0.3727 0.7231
vn -0.8397 -0.5298 0.1190
vn -0.5498 -0.6909 -0.4694
vn 0.0728 -0.6969 -0.7134
vn 0.6810 -0.5605 -0.4713
vn 0.9325 -0.3420 0.1164
vn 0.6489 -0.2423 0.7213
vt 0.340484 0.643608
vt 0.163885 0.660207
vt 0.302453 0.481384
vt 0.062908 0.563186
vt 0.196124 0.477515
vt 0.429056 0.476634
vt 0.340645 0.383584
vt 0.216942 0.387253
vt 0.169771 0.363998
vt 0.263998 0.280076
vt 0.362342 0.269684
vt 0.140083 0.290561
vt 0.343949 0.162458
vt 0.295465 0.191439
vt 0.156970 0.185784
vt 0.070720 0.316311
vt 0.292581 0.776285
vt 0.378965 0.705411
vt 0.398633 0.776817
vt 0.149497 0.636445
vt 0.291652 0.659337
vt 0.377984 0.579545
vt 0.476522 0.699828
vt 0.912155 0.665004
vt 0.897250 0.834996
vt 0.889763 0.665004
vt 0.874858 0.834996
vt 0.859847 0.665004
vt 0.837538 0.834996
vt 0.830050 0.665004
vt 0.815146 0.834996
vt 0.800134 0.665004
vt 0.777826 0.834996
vt 0.770338 0.665004
vt 0.755433 0.834996
vt 0.740422 0.665004
vt 0.718113 0.834996
vt 0.710626 0.665004
vt 0.695721 0.834996
vt 0.685230 0.665004
vt 0.821408 0.019152
vt 0.719694 0.082569
vt 0.681224 0.250517
vt 0.719820 0.417639
vt 0.822037 0.480848
vt 0.923751 0.417431
vt 0.962221 0.249483
vt 0.923625 0.082361
s 1

f 54/49/73 56/50/74 58/51/75
f 55/52/76 59/53/77 56/50/74
f 57/54/78 58/51/75 61/55/79
f 58/51/75 60/56/80 61/55/79
f 55/52/76 62/57/81 59/53/77
f 59/53/77 62/57/81 60/56/80
f 60/56/80 64/58/82 61/55/79
f 61/55/79 63/59/83 57/54/78
f 60/56/80 62/60/81 64/58/82
f 61/55/79 64/58/82 63/59/83
f 63/59/83 68/61/84 57/54/78
f 63/59/83 64/58/82 65/62/85
f 64/58/82 62/60/81 66/63/86
f 66/63/86 65/62/85 64/58/82
f 63/59/83 65/62/85 68/61/84
f 62/60/81 55/64/76 66/63/86
f 66/65/86 67/66/87 65/67/85
f 55/68/76 53/69/88 66/65/86
f 53/69/88 55/68/76 56/50/74
f 53/69/88 54/70/73 67/66/87
f 68/71/84 54/70/73 57/54/78
f 53/69/88 56/50/74 54/49/73
f 57/54/78 54/49/73 58/51/75
f 58/51/75 56/50/74 59/53/77
f 58/51/75 59/53/77 60/56/80
f 68/71/84 65/67/85 67/66/87
f 67/66/87 66/65/86 53/69/88
f 68/71/84 67/66/87 54/70/73
f 77/72/89 69/73/90 70/74/91
f 70/74/91 69/75/90 71/76/92
f 71/76/92 69/77/90 72/78/93
f 72/78/93 69/79/90 73/80/94
f 73/80/94 69/81/90 74/82/95
f 74/82/95 69/83/90 75/84/96
f 75/84/96 69/85/90 76/86/97
f 76/86/97 69/87/90 77/88/89
f 73/89/94 74/90/95 75/91/96 76/92/97 77/93/89 70/94/91 71/95/92 72/96/93
