# Blender 5.1.0
# www.blender.org
mtllib framechop4.mtl
o evobase.2000.070
v -0.175846 6.311106 -34.813702
v -0.476636 5.068565 -36.496078
v -1.632332 5.618809 -34.218067
v -1.932710 7.725831 -34.030548
v -2.940526 7.091278 -35.384331
v -1.651711 7.297204 -39.290871
v -2.522943 9.207381 -38.914749
v -1.851769 8.108402 -35.675850
v -0.939134 7.041203 -34.883713
v -0.911474 9.369418 -34.838280
v -2.115897 5.372277 -35.582104
v -1.822552 1.961397 -26.653072
v -0.475427 1.203031 -26.411327
v 0.000080 0.372377 -27.742453
v -1.305613 0.751945 -27.491430
v -0.767005 3.610301 -26.261517
v 1.083069 1.383221 -27.248842
v -0.844240 3.874260 -28.161715
v 0.263541 2.907630 -28.814219
v -1.829378 2.891000 -28.541199
v -0.270778 1.519575 -29.472994
v -1.310917 1.863842 -29.141188
v -0.870622 2.871284 -29.324718
v 0.297606 3.437212 -30.045897
v -1.140670 4.717755 -29.288757
v -0.354171 1.942246 -30.851715
v -1.620267 2.244454 -30.433846
v -2.257094 3.618104 -29.769022
v -1.210851 3.852535 -30.768391
v -2.401563 3.517971 -29.296801
v -0.933025 2.680461 -28.931015
v -0.548019 1.984506 -30.575689
v -1.910790 2.338798 -30.409344
v -1.207340 4.950729 -28.873478
v 0.667603 3.101348 -30.012510
v -1.398856 6.367980 -32.003654
v -0.162814 5.292903 -32.739399
v -2.497983 5.270505 -32.427509
v -0.758505 3.745889 -33.479588
v -1.918283 4.118378 -33.086624
v -1.455619 5.360204 -33.510040
v -0.181250 6.159431 -34.625256
v -1.873182 7.621925 -33.599472
v -0.746770 4.302392 -35.584564
v -2.335103 4.820703 -35.062645
v -3.128705 6.395758 -34.155495
v -1.925269 6.834261 -35.825409
vn 0.9273 0.0618 0.3692
vn -0.1808 -0.6210 0.7627
vn 0.5613 -0.7687 -0.3068
vn -0.3338 0.3678 0.8679
vn -0.9814 0.0406 0.1876
vn 0.1069 -0.2309 -0.9671
vn -0.3512 0.7822 -0.5146
vn -0.0147 0.9864 -0.1635
vn 0.7621 0.6210 0.1829
vn 0.4407 0.8825 0.1643
vn -0.6273 -0.7777 -0.0412
vn 0.8986 -0.2837 0.3347
vn -0.1196 0.3203 0.9398
vn 0.2983 -0.9520 0.0682
vn -0.5697 -0.8074 0.1536
vn -0.7718 -0.0916 0.6292
vn 0.0360 0.9076 0.4183
vn 0.9472 0.3184 0.0378
vn 0.0682 0.6939 0.7169
vn -0.9727 0.0901 0.2137
vn 0.3825 -0.7981 -0.4655
vn -0.7041 -0.6727 -0.2272
vn -0.1124 0.4504 -0.8857
vn -0.0383 0.0139 -0.9992
vn -0.6003 0.2886 -0.7459
vn -0.2919 0.7701 -0.5672
vn 0.2534 0.7588 -0.6001
vn 0.4310 0.2922 -0.8538
vn 0.9856 0.1488 0.0798
vn -0.0729 0.7917 0.6065
vn -0.9369 0.0360 0.3477
vn 0.4072 -0.8660 -0.2901
vn -0.6547 -0.7504 -0.0909
vn -0.2893 0.4375 -0.8514
vn 0.5309 0.2804 -0.7997
vn -0.1009 0.0837 -0.9914
vn 0.0846 0.4863 -0.8697
vn -0.0464 0.5076 -0.8604
vn -0.2244 0.6657 -0.7117
vn 0.8880 -0.2826 0.3628
vn -0.1180 0.3125 0.9425
vn 0.3095 -0.9494 0.0531
vn -0.5801 -0.8100 0.0861
vn -0.7715 -0.1057 0.6274
vn 0.0620 0.8553 0.5144
vn 0.9599 0.2759 0.0497
vn 0.1061 0.5728 0.8128
vn -0.9708 0.0771 0.2271
vn 0.4082 -0.8076 -0.4256
vn -0.7054 -0.6615 -0.2546
vn -0.1371 0.4652 -0.8745
vn -0.0582 -0.0502 -0.9970
vn -0.7141 0.2046 -0.6694
vn -0.3130 0.7985 -0.5141
vn 0.3581 0.8003 -0.4809
vn 0.4991 0.2996 -0.8131
vn 0.9802 0.1762 0.0905
vn -0.0641 0.7784 0.6246
vn -0.9358 0.0162 0.3521
vn 0.4344 -0.8714 -0.2280
vn -0.6710 -0.7320 -0.1181
vn -0.1249 0.4897 -0.8629
vn 0.5566 0.2985 -0.7753
vn -0.1518 0.2445 -0.9577
vn -0.0892 0.5708 -0.8162
vn -0.1870 0.3720 -0.9092
vn -0.1834 0.6137 -0.7679
vt 0.740590 0.474430
vt 0.704830 0.500083
vt 0.850190 0.500083
vt 0.631070 0.438290
vt 0.734200 0.436340
vt 0.969475 0.485283
vt 0.944135 0.325776
vt 0.735550 0.383210
vt 0.727880 0.441440
vt 0.633926 0.308463
vt 0.772850 0.500083
vt 0.421970 0.359520
vt 0.477530 0.377970
vt 0.493640 0.388520
vt 0.475730 0.377970
vt 0.430970 0.261120
vt 0.431720 0.259830
vt 0.422680 0.359520
vt 0.464130 0.243750
vt 0.465550 0.242150
vt 0.477170 0.237430
vt 0.452660 0.152310
vt 0.421280 0.140810
vt 0.422300 0.139040
vt 0.468620 0.114840
vt 0.484520 0.108370
vt 0.466680 0.117030
vt 0.248348 0.359520
vt 0.303908 0.377970
vt 0.320018 0.388520
vt 0.302108 0.377970
vt 0.257348 0.261120
vt 0.258098 0.259830
vt 0.249058 0.359520
vt 0.290508 0.243750
vt 0.291928 0.242150
vt 0.303548 0.237430
vt 0.279038 0.152310
vt 0.247658 0.140810
vt 0.248678 0.139040
vt 0.294998 0.114840
vt 0.310898 0.108370
vt 0.293058 0.117030
s 1

f 1/1/1 3/2/2 2/3/3
f 4/4/4 3/2/2 1/1/1
f 5/5/5 3/2/2 4/4/4
f 2/3/3 6/6/6 1/1/1
f 6/6/6 7/7/7 1/1/1
f 7/7/7 6/6/6 5/5/5
f 5/5/5 8/8/8 7/7/7
f 7/7/7 8/8/8 1/1/1
f 8/8/8 9/9/9 1/1/1
f 1/1/1 9/9/9 4/4/4
f 8/8/8 5/5/5 10/10/10
f 4/4/4 10/10/10 5/5/5
f 8/8/8 10/10/10 9/9/9
f 10/10/10 4/4/4 9/9/9
f 6/6/6 11/11/11 5/5/5
f 5/5/5 11/11/11 3/2/2
f 3/2/2 11/11/11 2/3/3
f 2/3/3 11/11/11 6/6/6
f 17/12/12 13/12/13 14/13/14
f 14/13/14 13/13/13 15/14/15
f 15/14/15 13/14/13 12/15/16
f 18/16/17 17/12/12 19/17/18
f 18/16/17 16/18/19 17/12/12
f 12/15/16 18/16/17 20/19/20
f 12/15/16 16/18/19 18/16/17
f 17/12/12 21/20/21 19/17/18
f 17/12/12 14/13/14 21/20/21
f 21/20/21 15/14/15 22/21/22
f 21/20/21 14/13/14 15/14/15
f 15/14/15 20/19/20 22/21/22
f 15/14/15 12/15/16 20/19/20
f 23/22/23 25/23/24 24/24/25
f 23/22/23 24/24/25 26/25/26
f 23/22/23 26/25/26 27/26/27
f 23/22/23 27/26/27 28/27/28
f 23/22/23 28/27/28 25/23/24
f 18/16/17 24/24/29 25/23/30
f 18/16/17 19/17/18 24/24/29
f 20/19/20 25/23/30 28/27/31
f 20/19/20 18/16/17 25/23/30
f 24/24/29 21/20/21 26/25/32
f 24/24/29 19/17/18 21/20/21
f 21/20/21 27/26/33 26/25/32
f 21/20/21 22/21/22 27/26/33
f 27/26/33 20/19/20 28/27/31
f 27/26/33 22/21/22 20/19/20
f 24/24/34 29/24/35 25/23/36
f 25/23/36 29/23/35 28/27/37
f 28/27/37 29/27/35 27/26/38
f 27/26/38 29/26/35 26/25/39
f 26/25/39 29/25/35 24/24/34
f 12/15/16 13/15/13 16/18/19
f 16/18/19 13/18/13 17/12/12
f 35/28/40 31/28/41 32/29/42
f 32/29/42 31/29/41 33/30/43
f 33/30/43 31/30/41 30/31/44
f 36/32/45 35/28/40 37/33/46
f 36/32/45 34/34/47 35/28/40
f 30/31/44 36/32/45 38/35/48
f 30/31/44 34/34/47 36/32/45
f 35/28/40 39/36/49 37/33/46
f 35/28/40 32/29/42 39/36/49
f 39/36/49 33/30/43 40/37/50
f 39/36/49 32/29/42 33/30/43
f 33/30/43 38/35/48 40/37/50
f 33/30/43 30/31/44 38/35/48
f 41/38/51 43/39/52 42/40/53
f 41/38/51 42/40/53 44/41/54
f 41/38/51 44/41/54 45/42/55
f 41/38/51 45/42/55 46/43/56
f 41/38/51 46/43/56 43/39/52
f 36/32/45 42/40/57 43/39/58
f 36/32/45 37/33/46 42/40/57
f 38/35/48 43/39/58 46/43/59
f 38/35/48 36/32/45 43/39/58
f 42/40/57 39/36/49 44/41/60
f 42/40/57 37/33/46 39/36/49
f 39/36/49 45/42/61 44/41/60
f 39/36/49 40/37/50 45/42/61
f 45/42/61 38/35/48 46/43/59
f 45/42/61 40/37/50 38/35/48
f 42/40/62 47/40/63 43/39/64
f 43/39/64 47/39/63 46/43/65
f 46/43/65 47/43/63 45/42/66
f 45/42/66 47/42/63 44/41/67
f 44/41/67 47/41/63 42/40/62
f 30/31/44 31/31/41 34/34/47
f 34/34/47 31/34/41 35/28/40
