# Blender 5.1.0
# www.blender.org
mtllib framechop2.mtl
o evobase.2000.068
v 5.132809 7.332269 -28.252842
v 6.075706 7.605992 -30.123882
v 3.717171 7.006505 -29.172218
v 3.097819 8.475578 -27.749844
v 3.208673 9.228225 -29.384562
v 6.562031 11.311808 -30.558531
v 5.405480 12.732996 -29.466785
v 4.109708 9.727115 -28.269140
v 4.482592 8.162405 -28.159878
v 4.178524 9.755456 -26.488605
v 4.196043 7.848008 -30.275740
v -0.549441 -0.143554 -28.025612
v 0.458573 -1.309993 -27.757967
v 1.745130 -1.244214 -28.772079
v 0.519454 -0.661414 -29.036617
v -0.169475 0.389451 -26.139368
v 2.166506 -1.230923 -27.268555
v 0.887964 1.771902 -26.949951
v 2.276865 1.096426 -27.399395
v 0.470681 1.672357 -28.327366
v 2.434604 0.722456 -28.974655
v 1.372921 1.134923 -29.089581
v 1.700730 1.794681 -28.253073
v 2.982394 2.213269 -27.630777
v 1.230435 3.163570 -27.074667
v 3.150765 1.897323 -29.414288
v 1.864938 2.308931 -29.629164
v 0.786100 3.091922 -28.650650
v 2.183112 3.493564 -28.462599
v 0.399274 2.783262 -28.555862
v 1.437534 1.441192 -28.220173
v 2.825869 1.827010 -29.343208
v 1.609957 2.464833 -29.696873
v 0.896523 3.095226 -26.735535
v 3.295603 1.823848 -27.663450
v 2.462122 6.083967 -27.413479
v 4.016049 5.337450 -27.916395
v 1.996891 5.972877 -28.950813
v 4.195329 4.924395 -29.675152
v 2.999049 5.362182 -29.799702
v 3.459809 6.325718 -28.908205
v 5.033762 7.111969 -28.267136
v 2.896542 8.115950 -27.575710
v 5.409264 6.605713 -30.338699
v 3.779744 7.221004 -30.511713
v 2.405155 8.052527 -29.348701
v 4.305888 8.953127 -29.275948
vn 0.4962 -0.5187 0.6962
vn -0.5247 -0.8392 -0.1429
vn 0.7250 -0.5523 -0.4115
vn -0.8353 -0.1560 0.5272
vn -0.8892 0.2673 -0.3712
vn 0.6997 0.3949 -0.5953
vn -0.0639 0.9915 0.1131
vn -0.0388 0.7970 0.6028
vn 0.4078 0.0473 0.9118
vn 0.1333 0.3580 0.9242
vn -0.3678 -0.2930 -0.8826
vn 0.5388 -0.7292 0.4218
vn -0.7045 -0.3109 0.6379
vn 0.3147 -0.8166 -0.4838
vn -0.4368 -0.4545 -0.7763
vn -0.9755 -0.1729 -0.1360
vn -0.3416 0.3653 0.8660
vn 0.6798 -0.1422 0.7195
vn -0.4699 0.0202 0.8825
vn -0.9046 0.2827 -0.3189
vn 0.6846 -0.4107 -0.6022
vn -0.3288 -0.0772 -0.9412
vn 0.3910 0.9013 -0.1864
vn 0.5738 0.6386 -0.5128
vn -0.0560 0.8781 -0.4753
vn 0.0161 0.9940 0.1080
vn 0.4654 0.8094 0.3580
vn 0.8184 0.5746 -0.0079
vn 0.7062 -0.3007 0.6409
vn -0.5263 0.2077 0.8246
vn -0.9508 0.1495 -0.2714
vn 0.6065 -0.5751 -0.5490
vn -0.3627 -0.2333 -0.9022
vn 0.2330 0.9350 -0.2673
vn 0.8655 0.4970 0.0614
vn 0.5110 0.7053 -0.4914
vn 0.5313 0.8455 -0.0540
vn 0.4201 0.9019 -0.1003
vn 0.1700 0.9854 -0.0041
vn 0.5133 -0.7419 0.4314
vn -0.7040 -0.3186 0.6347
vn 0.3324 -0.8095 -0.4840
vn -0.4037 -0.4110 -0.8174
vn -0.9723 -0.1817 -0.1467
vn -0.3727 0.2601 0.8908
vn 0.6880 -0.1839 0.7020
vn -0.4828 -0.1373 0.8649
vn -0.9096 0.2647 -0.3203
vn 0.6819 -0.4511 -0.5757
vn -0.3147 -0.0520 -0.9478
vn 0.3629 0.9137 -0.1829
vn 0.5652 0.5996 -0.5667
vn -0.1810 0.8132 -0.5531
vn -0.0363 0.9889 0.1440
vn 0.4701 0.7274 0.4999
vn 0.8463 0.5302 0.0521
vn 0.6919 -0.2862 0.6628
vn -0.5286 0.1840 0.8287
vn -0.9501 0.1325 -0.2825
vn 0.5908 -0.6270 -0.5078
vn -0.3613 -0.1979 -0.9112
vn 0.3624 0.9193 -0.1537
vn 0.8686 0.4854 0.0993
vn 0.4300 0.8156 -0.3871
vn 0.3516 0.9345 -0.0553
vn 0.3567 0.8878 -0.2909
vn 0.2429 0.9688 -0.0482
vt 0.740590 0.474430
vt 0.704830 0.500083
vt 0.850190 0.500083
vt 0.631070 0.438290
vt 0.734200 0.436340
vt 0.969475 0.485283
vt 0.944135 0.325776
vt 0.735550 0.383210
vt 0.727880 0.441440
vt 0.633926 0.308463
vt 0.772850 0.500083
vt 0.421970 0.359520
vt 0.477530 0.377970
vt 0.493640 0.388520
vt 0.475730 0.377970
vt 0.430970 0.261120
vt 0.431720 0.259830
vt 0.422680 0.359520
vt 0.464130 0.243750
vt 0.465550 0.242150
vt 0.477170 0.237430
vt 0.452660 0.152310
vt 0.421280 0.140810
vt 0.422300 0.139040
vt 0.468620 0.114840
vt 0.484520 0.108370
vt 0.466680 0.117030
vt 0.248348 0.359520
vt 0.303908 0.377970
vt 0.320018 0.388520
vt 0.302108 0.377970
vt 0.257348 0.261120
vt 0.258098 0.259830
vt 0.249058 0.359520
vt 0.290508 0.243750
vt 0.291928 0.242150
vt 0.303548 0.237430
vt 0.279038 0.152310
vt 0.247658 0.140810
vt 0.248678 0.139040
vt 0.294998 0.114840
vt 0.310898 0.108370
vt 0.293058 0.117030
s 1
usemtl mat1.001
f 1/1/1 3/2/2 2/3/3
f 4/4/4 3/2/2 1/1/1
f 5/5/5 3/2/2 4/4/4
f 2/3/3 6/6/6 1/1/1
f 6/6/6 7/7/7 1/1/1
f 7/7/7 6/6/6 5/5/5
f 5/5/5 8/8/8 7/7/7
f 7/7/7 8/8/8 1/1/1
f 8/8/8 9/9/9 1/1/1
f 1/1/1 9/9/9 4/4/4
f 8/8/8 5/5/5 10/10/10
f 4/4/4 10/10/10 5/5/5
f 8/8/8 10/10/10 9/9/9
f 10/10/10 4/4/4 9/9/9
f 6/6/6 11/11/11 5/5/5
f 5/5/5 11/11/11 3/2/2
f 3/2/2 11/11/11 2/3/3
f 2/3/3 11/11/11 6/6/6
f 17/12/12 13/12/13 14/13/14
f 14/13/14 13/13/13 15/14/15
f 15/14/15 13/14/13 12/15/16
f 18/16/17 17/12/12 19/17/18
f 18/16/17 16/18/19 17/12/12
f 12/15/16 18/16/17 20/19/20
f 12/15/16 16/18/19 18/16/17
f 17/12/12 21/20/21 19/17/18
f 17/12/12 14/13/14 21/20/21
f 21/20/21 15/14/15 22/21/22
f 21/20/21 14/13/14 15/14/15
f 15/14/15 20/19/20 22/21/22
f 15/14/15 12/15/16 20/19/20
f 23/22/23 25/23/24 24/24/25
f 23/22/23 24/24/25 26/25/26
f 23/22/23 26/25/26 27/26/27
f 23/22/23 27/26/27 28/27/28
f 23/22/23 28/27/28 25/23/24
f 18/16/17 24/24/29 25/23/30
f 18/16/17 19/17/18 24/24/29
f 20/19/20 25/23/30 28/27/31
f 20/19/20 18/16/17 25/23/30
f 24/24/29 21/20/21 26/25/32
f 24/24/29 19/17/18 21/20/21
f 21/20/21 27/26/33 26/25/32
f 21/20/21 22/21/22 27/26/33
f 27/26/33 20/19/20 28/27/31
f 27/26/33 22/21/22 20/19/20
f 24/24/34 29/24/35 25/23/36
f 25/23/36 29/23/35 28/27/37
f 28/27/37 29/27/35 27/26/38
f 27/26/38 29/26/35 26/25/39
f 26/25/39 29/25/35 24/24/34
f 12/15/16 13/15/13 16/18/19
f 16/18/19 13/18/13 17/12/12
f 35/28/40 31/28/41 32/29/42
f 32/29/42 31/29/41 33/30/43
f 33/30/43 31/30/41 30/31/44
f 36/32/45 35/28/40 37/33/46
f 36/32/45 34/34/47 35/28/40
f 30/31/44 36/32/45 38/35/48
f 30/31/44 34/34/47 36/32/45
f 35/28/40 39/36/49 37/33/46
f 35/28/40 32/29/42 39/36/49
f 39/36/49 33/30/43 40/37/50
f 39/36/49 32/29/42 33/30/43
f 33/30/43 38/35/48 40/37/50
f 33/30/43 30/31/44 38/35/48
f 41/38/51 43/39/52 42/40/53
f 41/38/51 42/40/53 44/41/54
f 41/38/51 44/41/54 45/42/55
f 41/38/51 45/42/55 46/43/56
f 41/38/51 46/43/56 43/39/52
f 36/32/45 42/40/57 43/39/58
f 36/32/45 37/33/46 42/40/57
f 38/35/48 43/39/58 46/43/59
f 38/35/48 36/32/45 43/39/58
f 42/40/57 39/36/49 44/41/60
f 42/40/57 37/33/46 39/36/49
f 39/36/49 45/42/61 44/41/60
f 39/36/49 40/37/50 45/42/61
f 45/42/61 38/35/48 46/43/59
f 45/42/61 40/37/50 38/35/48
f 42/40/62 47/40/63 43/39/64
f 43/39/64 47/39/63 46/43/65
f 46/43/65 47/43/63 45/42/66
f 45/42/66 47/42/63 44/41/67
f 44/41/67 47/41/63 42/40/62
f 30/31/44 31/31/41 34/34/47
f 34/34/47 31/34/41 35/28/40
