# Blender 5.1.0
# www.blender.org
mtllib framechop1.mtl
o evobase.2000.001
v 10.316540 6.657833 -28.250788
v 11.263999 6.940172 -30.123175
v 8.904969 6.339749 -29.171366
v 8.276767 7.792106 -27.746376
v 8.394366 8.557493 -29.383087
v 12.106648 10.855960 -30.726700
v 10.700119 9.345378 -30.394146
v 11.460400 10.775689 -30.240250
v 10.435415 11.650535 -29.224859
v 10.596533 12.038344 -29.495743
v 9.289279 9.044821 -28.265858
v 9.661183 7.478261 -28.156305
v 9.553380 8.905454 -26.457848
v 9.155323 8.926447 -26.493954
v 9.357836 9.211664 -26.647017
v 9.384085 7.181714 -30.274960
v 4.630676 -0.824817 -28.022490
v 5.648417 -1.972883 -27.757717
v 6.928257 -1.919791 -28.769848
v 5.705589 -1.331309 -29.035273
v 5.007215 -0.298286 -26.135235
v 7.351456 -1.903057 -27.266861
v 6.063480 1.081949 -26.945473
v 7.462062 0.424759 -27.397774
v 5.651173 0.991802 -28.324356
v 7.620406 0.051933 -28.973213
v 6.554826 0.457037 -29.086987
v 6.880930 1.113575 -28.249975
v 8.169128 1.544506 -27.629610
v 6.412070 2.485175 -27.071995
v 8.343239 1.239402 -29.414814
v 7.054457 1.645428 -29.628820
v 5.970902 2.419510 -28.648912
v 7.370413 2.825872 -28.461599
v 5.585427 2.113400 -28.554523
v 6.618455 0.761447 -28.217289
v 8.014923 1.162629 -29.342726
v 6.799187 1.800783 -29.696444
v 6.075627 2.412050 -26.732115
v 8.480494 1.151603 -27.661739
v 7.645859 5.409543 -27.411427
v 9.208104 4.678736 -27.916800
v 7.183668 5.304194 -28.949659
v 9.381528 4.254621 -29.673828
v 8.189345 4.700146 -29.799587
v 8.647762 5.659257 -28.907396
v 10.218193 6.438853 -28.265287
v 8.079184 7.439456 -27.573334
v 10.598131 5.940979 -30.338163
v 8.965813 6.550982 -30.510349
v 7.588861 7.378044 -29.346642
v 9.483786 8.267671 -29.272171
vn 0.5009 -0.5204 0.6916
vn -0.5236 -0.8392 -0.1473
vn 0.7330 -0.5415 -0.4117
vn -0.8517 -0.1743 0.4942
vn -0.8891 0.2651 -0.3732
vn -0.2835 0.0861 -0.9551
vn 0.7771 0.3996 -0.4863
vn 0.6782 0.0076 0.7348
vn -0.0860 0.5451 0.8339
vn -0.0490 0.9984 0.0275
vn -0.0016 0.8306 0.5569
vn 0.4186 0.0352 0.9075
vn 0.6179 -0.0568 0.7842
vn -0.0415 0.9387 0.3422
vn -0.5941 0.1467 0.7909
vn -0.3613 -0.2931 -0.8852
vn 0.5380 -0.7297 0.4219
vn -0.7039 -0.3159 0.6362
vn 0.3123 -0.8185 -0.4823
vn -0.4371 -0.4545 -0.7762
vn -0.9745 -0.1779 -0.1367
vn -0.3421 0.3672 0.8650
vn 0.6797 -0.1422 0.7196
vn -0.4704 0.0169 0.8823
vn -0.9041 0.2835 -0.3197
vn 0.6847 -0.4103 -0.6023
vn -0.3277 -0.0754 -0.9418
vn 0.3881 0.9035 -0.1822
vn 0.5737 0.6376 -0.5141
vn -0.0655 0.8781 -0.4739
vn 0.0071 0.9932 0.1162
vn 0.4609 0.8070 0.3693
vn 0.8205 0.5716 -0.0005
vn 0.7072 -0.3014 0.6395
vn -0.5254 0.2088 0.8248
vn -0.9498 0.1503 -0.2746
vn 0.6072 -0.5740 -0.5494
vn -0.3597 -0.2321 -0.9037
vn 0.2304 0.9375 -0.2607
vn 0.8638 0.4996 0.0652
vn 0.5090 0.7096 -0.4872
vn 0.5272 0.8484 -0.0489
vn 0.4151 0.9045 -0.0981
vn 0.1666 0.9860 0.0003
vn 0.5143 -0.7417 0.4306
vn -0.7045 -0.3201 0.6334
vn 0.3337 -0.8076 -0.4863
vn -0.4025 -0.4089 -0.8190
vn -0.9721 -0.1800 -0.1502
vn -0.3729 0.2602 0.8906
vn 0.6881 -0.1845 0.7017
vn -0.4832 -0.1388 0.8644
vn -0.9096 0.2642 -0.3207
vn 0.6820 -0.4507 -0.5760
vn -0.3150 -0.0530 -0.9476
vn 0.3615 0.9146 -0.1812
vn 0.5644 0.6029 -0.5640
vn -0.1801 0.8156 -0.5498
vn -0.0366 0.9888 0.1449
vn 0.4678 0.7297 0.4987
vn 0.8441 0.5335 0.0528
vn 0.6924 -0.2866 0.6621
vn -0.5290 0.1836 0.8286
vn -0.9500 0.1314 -0.2833
vn 0.5910 -0.6265 -0.5081
vn -0.3607 -0.1986 -0.9113
vn 0.3571 0.9213 -0.1539
vn 0.8673 0.4877 0.0995
vn 0.4308 0.8142 -0.3892
vn 0.3547 0.9335 -0.0517
vn 0.3557 0.8901 -0.2851
vn 0.2376 0.9704 -0.0433
vt 0.740590 0.474430
vt 0.704830 0.500083
vt 0.850190 0.500083
vt 0.631070 0.438290
vt 0.734200 0.436340
vt 0.894090 0.455180
vt 0.982360 0.496330
vt 0.961900 0.459080
vt 0.927690 0.303610
vt 0.944190 0.325850
vt 0.735550 0.383210
vt 0.727880 0.441440
vt 0.632190 0.308550
vt 0.662130 0.308160
vt 0.598600 0.308800
vt 0.772850 0.500083
vt 0.421970 0.359520
vt 0.477530 0.377970
vt 0.493640 0.388520
vt 0.475730 0.377970
vt 0.430970 0.261120
vt 0.431720 0.259830
vt 0.422680 0.359520
vt 0.464130 0.243750
vt 0.465550 0.242150
vt 0.477170 0.237430
vt 0.452660 0.152310
vt 0.421280 0.140810
vt 0.422300 0.139040
vt 0.468620 0.114840
vt 0.484520 0.108370
vt 0.466680 0.117030
vt 0.248348 0.359520
vt 0.303908 0.377970
vt 0.320018 0.388520
vt 0.302108 0.377970
vt 0.257348 0.261120
vt 0.258098 0.259830
vt 0.249058 0.359520
vt 0.290508 0.243750
vt 0.291928 0.242150
vt 0.303548 0.237430
vt 0.279038 0.152310
vt 0.247658 0.140810
vt 0.248678 0.139040
vt 0.294998 0.114840
vt 0.310898 0.108370
vt 0.293058 0.117030
s 1

f 1/1/1 3/2/2 2/3/3
f 4/4/4 3/2/2 1/1/1
f 5/5/5 3/2/2 4/4/4
f 2/3/3 7/6/6 6/7/7
f 6/7/7 8/8/8 2/3/3
f 2/3/3 8/8/8 1/1/1
f 8/8/8 9/9/9 1/1/1
f 10/10/10 5/5/5 9/9/9
f 6/7/7 7/6/6 10/10/10
f 10/10/10 7/6/6 5/5/5
f 9/9/9 8/8/8 10/10/10
f 10/10/10 8/8/8 6/7/7
f 5/5/5 11/11/11 9/9/9
f 9/9/9 11/11/11 1/1/1
f 11/11/11 12/12/12 1/1/1
f 1/1/1 12/12/12 4/4/4
f 13/13/13 15/14/14 14/15/15
f 11/11/11 5/5/5 15/14/14
f 14/15/15 15/14/14 4/4/4
f 4/4/4 15/14/14 5/5/5
f 15/14/14 13/13/13 11/11/11
f 11/11/11 13/13/13 12/12/12
f 14/15/15 4/4/4 13/13/13
f 13/13/13 4/4/4 12/12/12
f 7/6/6 16/16/16 5/5/5
f 5/5/5 16/16/16 3/2/2
f 3/2/2 16/16/16 2/3/3
f 2/3/3 16/16/16 7/6/6
f 22/17/17 18/17/18 19/18/19
f 19/18/19 18/18/18 20/19/20
f 20/19/20 18/19/18 17/20/21
f 23/21/22 22/17/17 24/22/23
f 23/21/22 21/23/24 22/17/17
f 17/20/21 23/21/22 25/24/25
f 17/20/21 21/23/24 23/21/22
f 22/17/17 26/25/26 24/22/23
f 22/17/17 19/18/19 26/25/26
f 26/25/26 20/19/20 27/26/27
f 26/25/26 19/18/19 20/19/20
f 20/19/20 25/24/25 27/26/27
f 20/19/20 17/20/21 25/24/25
f 28/27/28 30/28/29 29/29/30
f 28/27/28 29/29/30 31/30/31
f 28/27/28 31/30/31 32/31/32
f 28/27/28 32/31/32 33/32/33
f 28/27/28 33/32/33 30/28/29
f 23/21/22 29/29/34 30/28/35
f 23/21/22 24/22/23 29/29/34
f 25/24/25 30/28/35 33/32/36
f 25/24/25 23/21/22 30/28/35
f 29/29/34 26/25/26 31/30/37
f 29/29/34 24/22/23 26/25/26
f 26/25/26 32/31/38 31/30/37
f 26/25/26 27/26/27 32/31/38
f 32/31/38 25/24/25 33/32/36
f 32/31/38 27/26/27 25/24/25
f 29/29/39 34/29/40 30/28/41
f 30/28/41 34/28/40 33/32/42
f 33/32/42 34/32/40 32/31/43
f 32/31/43 34/31/40 31/30/44
f 31/30/44 34/30/40 29/29/39
f 17/20/21 18/20/18 21/23/24
f 21/23/24 18/23/18 22/17/17
f 40/33/45 36/33/46 37/34/47
f 37/34/47 36/34/46 38/35/48
f 38/35/48 36/35/46 35/36/49
f 41/37/50 40/33/45 42/38/51
f 41/37/50 39/39/52 40/33/45
f 35/36/49 41/37/50 43/40/53
f 35/36/49 39/39/52 41/37/50
f 40/33/45 44/41/54 42/38/51
f 40/33/45 37/34/47 44/41/54
f 44/41/54 38/35/48 45/42/55
f 44/41/54 37/34/47 38/35/48
f 38/35/48 43/40/53 45/42/55
f 38/35/48 35/36/49 43/40/53
f 46/43/56 48/44/57 47/45/58
f 46/43/56 47/45/58 49/46/59
f 46/43/56 49/46/59 50/47/60
f 46/43/56 50/47/60 51/48/61
f 46/43/56 51/48/61 48/44/57
f 41/37/50 47/45/62 48/44/63
f 41/37/50 42/38/51 47/45/62
f 43/40/53 48/44/63 51/48/64
f 43/40/53 41/37/50 48/44/63
f 47/45/62 44/41/54 49/46/65
f 47/45/62 42/38/51 44/41/54
f 44/41/54 50/47/66 49/46/65
f 44/41/54 45/42/55 50/47/66
f 50/47/66 43/40/53 51/48/64
f 50/47/66 45/42/55 43/40/53
f 47/45/67 52/45/68 48/44/69
f 48/44/69 52/44/68 51/48/70
f 51/48/70 52/48/68 50/47/71
f 50/47/71 52/47/68 49/46/72
f 49/46/72 52/46/68 47/45/67
f 35/36/49 36/36/46 39/39/52
f 39/39/52 36/39/46 40/33/45
