# Blender 5.1.0
# www.blender.org
mtllib framechop3.mtl
o evobase.2000.069
v 0.423445 8.399751 -30.515062
v 0.570927 8.687401 -32.603191
v -1.248631 8.132382 -30.811852
v -1.215002 9.587206 -29.247469
v -1.725093 10.371168 -30.788990
v 0.972931 12.386976 -33.160004
v 0.381696 13.815639 -31.690767
v -0.444382 10.821430 -30.109310
v -0.110942 9.245156 -30.168261
v 0.314010 10.809980 -28.496687
v -1.209994 8.983801 -32.007175
v -4.967151 1.078640 -28.154907
v -3.974157 -0.120306 -28.312382
v -3.183305 -0.068093 -29.747585
v -4.394909 0.553437 -29.507515
v -3.864334 1.560809 -26.561895
v -2.208951 -0.098310 -28.527731
v -3.160973 2.930827 -27.708511
v -2.080589 2.227417 -28.670435
v -4.085280 2.872046 -28.814632
v -2.562019 1.882895 -30.185596
v -3.570074 2.326535 -29.873322
v -2.920242 2.959147 -29.225243
v -1.484169 3.329263 -29.148838
v -2.847897 4.314970 -27.944546
v -2.035058 3.046871 -30.859352
v -3.288382 3.497896 -30.551619
v -3.873577 4.289033 -29.222670
v -2.501201 4.648308 -29.591219
v -4.202931 3.989097 -28.987183
v -3.161448 2.612351 -29.095390
v -2.308693 2.983953 -30.667730
v -3.544218 3.662104 -30.513037
v -3.025268 4.248561 -27.502609
v -1.221686 2.932223 -29.304653
v -1.748849 7.207216 -28.711079
v -0.539817 6.429442 -29.787283
v -2.780011 7.141608 -29.945820
v -1.074263 6.049175 -31.480133
v -2.209090 6.521997 -31.123959
v -1.405314 7.453409 -30.474430
v 0.319357 8.182590 -30.491535
v -1.344373 9.229579 -29.011814
v -0.159570 7.710481 -32.549789
v -1.706057 8.373555 -32.067547
v -2.489880 9.217340 -30.452871
v -0.682206 10.063980 -31.119713
vn 0.7107 -0.5468 0.4427
vn -0.5667 -0.8213 0.0658
vn 0.4883 -0.5630 -0.6668
vn -0.5684 -0.1443 0.8100
vn -0.9541 0.2993 0.0077
vn 0.4250 0.3883 -0.8177
vn 0.0184 0.9903 0.1380
vn 0.2259 0.7847 0.5772
vn 0.7324 0.0168 0.6807
vn 0.4949 0.3345 0.8020
vn -0.6923 -0.2640 -0.6716
vn 0.6359 -0.7525 0.1715
vn -0.4101 -0.3051 0.8595
vn 0.0737 -0.8144 -0.5756
vn -0.7198 -0.4258 -0.5483
vn -0.9565 -0.1432 0.2540
vn 0.0355 0.3560 0.9338
vn 0.9013 -0.1760 0.3958
vn -0.0877 0.0142 0.9960
vn -0.9474 0.3140 0.0620
vn 0.3816 -0.4163 -0.8253
vn -0.6721 -0.0481 -0.7389
vn 0.3173 0.8941 -0.3162
vn 0.3495 0.6334 -0.6903
vn -0.2075 0.8892 -0.4078
vn 0.0901 0.9907 0.1020
vn 0.5950 0.7886 0.1552
vn 0.7693 0.5521 -0.3216
vn 0.8897 -0.3335 0.3117
vn -0.1560 0.2044 0.9664
vn -0.9758 0.1811 0.1226
vn 0.3249 -0.5796 -0.7473
vn -0.6933 -0.2041 -0.6911
vn 0.1414 0.9338 -0.3287
vn 0.8371 0.4718 -0.2768
vn 0.3023 0.7014 -0.6455
vn 0.4961 0.8316 -0.2496
vn 0.3777 0.8920 -0.2483
vn 0.1878 0.9803 -0.0613
vn 0.6158 -0.7646 0.1902
vn -0.4111 -0.3127 0.8563
vn 0.0901 -0.8078 -0.5825
vn -0.7039 -0.3823 -0.5986
vn -0.9581 -0.1520 0.2429
vn 0.0130 0.2511 0.9679
vn 0.9007 -0.2175 0.3761
vn -0.1117 -0.1424 0.9835
vn -0.9531 0.2962 0.0625
vn 0.3880 -0.4572 -0.8002
vn -0.6608 -0.0232 -0.7502
vn 0.2932 0.9071 -0.3019
vn 0.3192 0.5959 -0.7369
vn -0.3550 0.8294 -0.4313
vn 0.0558 0.9862 0.1556
vn 0.6519 0.7035 0.2832
vn 0.8169 0.5056 -0.2776
vn 0.8856 -0.3190 0.3376
vn -0.1572 0.1806 0.9709
vn -0.9800 0.1643 0.1119
vn 0.3248 -0.6319 -0.7037
vn -0.6943 -0.1685 -0.6996
vn 0.3043 0.9121 -0.2747
vn 0.8543 0.4593 -0.2432
vn 0.2721 0.8116 -0.5169
vn 0.3333 0.9255 -0.1798
vn 0.2446 0.8837 -0.3991
vn 0.2371 0.9627 -0.1306
vt 0.740590 0.474430
vt 0.704830 0.500083
vt 0.850190 0.500083
vt 0.631070 0.438290
vt 0.734200 0.436340
vt 0.969475 0.485283
vt 0.944135 0.325776
vt 0.735550 0.383210
vt 0.727880 0.441440
vt 0.633926 0.308463
vt 0.772850 0.500083
vt 0.421970 0.359520
vt 0.477530 0.377970
vt 0.493640 0.388520
vt 0.475730 0.377970
vt 0.430970 0.261120
vt 0.431720 0.259830
vt 0.422680 0.359520
vt 0.464130 0.243750
vt 0.465550 0.242150
vt 0.477170 0.237430
vt 0.452660 0.152310
vt 0.421280 0.140810
vt 0.422300 0.139040
vt 0.468620 0.114840
vt 0.484520 0.108370
vt 0.466680 0.117030
vt 0.248348 0.359520
vt 0.303908 0.377970
vt 0.320018 0.388520
vt 0.302108 0.377970
vt 0.257348 0.261120
vt 0.258098 0.259830
vt 0.249058 0.359520
vt 0.290508 0.243750
vt 0.291928 0.242150
vt 0.303548 0.237430
vt 0.279038 0.152310
vt 0.247658 0.140810
vt 0.248678 0.139040
vt 0.294998 0.114840
vt 0.310898 0.108370
vt 0.293058 0.117030
s 1
usemtl mat1.001
f 1/1/1 3/2/2 2/3/3
f 4/4/4 3/2/2 1/1/1
f 5/5/5 3/2/2 4/4/4
f 2/3/3 6/6/6 1/1/1
f 6/6/6 7/7/7 1/1/1
f 7/7/7 6/6/6 5/5/5
f 5/5/5 8/8/8 7/7/7
f 7/7/7 8/8/8 1/1/1
f 8/8/8 9/9/9 1/1/1
f 1/1/1 9/9/9 4/4/4
f 8/8/8 5/5/5 10/10/10
f 4/4/4 10/10/10 5/5/5
f 8/8/8 10/10/10 9/9/9
f 10/10/10 4/4/4 9/9/9
f 6/6/6 11/11/11 5/5/5
f 5/5/5 11/11/11 3/2/2
f 3/2/2 11/11/11 2/3/3
f 2/3/3 11/11/11 6/6/6
f 17/12/12 13/12/13 14/13/14
f 14/13/14 13/13/13 15/14/15
f 15/14/15 13/14/13 12/15/16
f 18/16/17 17/12/12 19/17/18
f 18/16/17 16/18/19 17/12/12
f 12/15/16 18/16/17 20/19/20
f 12/15/16 16/18/19 18/16/17
f 17/12/12 21/20/21 19/17/18
f 17/12/12 14/13/14 21/20/21
f 21/20/21 15/14/15 22/21/22
f 21/20/21 14/13/14 15/14/15
f 15/14/15 20/19/20 22/21/22
f 15/14/15 12/15/16 20/19/20
f 23/22/23 25/23/24 24/24/25
f 23/22/23 24/24/25 26/25/26
f 23/22/23 26/25/26 27/26/27
f 23/22/23 27/26/27 28/27/28
f 23/22/23 28/27/28 25/23/24
f 18/16/17 24/24/29 25/23/30
f 18/16/17 19/17/18 24/24/29
f 20/19/20 25/23/30 28/27/31
f 20/19/20 18/16/17 25/23/30
f 24/24/29 21/20/21 26/25/32
f 24/24/29 19/17/18 21/20/21
f 21/20/21 27/26/33 26/25/32
f 21/20/21 22/21/22 27/26/33
f 27/26/33 20/19/20 28/27/31
f 27/26/33 22/21/22 20/19/20
f 24/24/34 29/24/35 25/23/36
f 25/23/36 29/23/35 28/27/37
f 28/27/37 29/27/35 27/26/38
f 27/26/38 29/26/35 26/25/39
f 26/25/39 29/25/35 24/24/34
f 12/15/16 13/15/13 16/18/19
f 16/18/19 13/18/13 17/12/12
f 35/28/40 31/28/41 32/29/42
f 32/29/42 31/29/41 33/30/43
f 33/30/43 31/30/41 30/31/44
f 36/32/45 35/28/40 37/33/46
f 36/32/45 34/34/47 35/28/40
f 30/31/44 36/32/45 38/35/48
f 30/31/44 34/34/47 36/32/45
f 35/28/40 39/36/49 37/33/46
f 35/28/40 32/29/42 39/36/49
f 39/36/49 33/30/43 40/37/50
f 39/36/49 32/29/42 33/30/43
f 33/30/43 38/35/48 40/37/50
f 33/30/43 30/31/44 38/35/48
f 41/38/51 43/39/52 42/40/53
f 41/38/51 42/40/53 44/41/54
f 41/38/51 44/41/54 45/42/55
f 41/38/51 45/42/55 46/43/56
f 41/38/51 46/43/56 43/39/52
f 36/32/45 42/40/57 43/39/58
f 36/32/45 37/33/46 42/40/57
f 38/35/48 43/39/58 46/43/59
f 38/35/48 36/32/45 43/39/58
f 42/40/57 39/36/49 44/41/60
f 42/40/57 37/33/46 39/36/49
f 39/36/49 45/42/61 44/41/60
f 39/36/49 40/37/50 45/42/61
f 45/42/61 38/35/48 46/43/59
f 45/42/61 40/37/50 38/35/48
f 42/40/62 47/40/63 43/39/64
f 43/39/64 47/39/63 46/43/65
f 46/43/65 47/43/63 45/42/66
f 45/42/66 47/42/63 44/41/67
f 44/41/67 47/41/63 42/40/62
f 30/31/44 31/31/41 34/34/47
f 34/34/47 31/34/41 35/28/40
